<?xml version="1.0" encoding="utf-8"?>
<!-- Generator: Adobe Illustrator 25.3.1, SVG Export Plug-In . SVG Version: 6.00 Build 0)  -->
<svg version="1.1" id="Camada_1" xmlns="http://www.w3.org/2000/svg" xmlns:xlink="http://www.w3.org/1999/xlink" x="0px" y="0px"
	 viewBox="0 0 155 36" style="enable-background:new 0 0 155 36;" xml:space="preserve">
<style type="text/css">
	.st0{fill:#20284E;}
	.st1{fill:#127DBF;}
</style>
<g id="Group_4" transform="translate(-1286.785 -997.802)">
	<g id="Group_1" transform="translate(1376.61 1014.135)">
		<path id="Path_1" class="st0" d="M-23.2,7.8c-1.4,1.9-3.5,3-5.9,3h-0.1c-1.8,0-3.5-0.7-4.7-2.1c-1.3-1.5-1.9-3.3-1.9-5.3V3.1
			c-0.1-1.9,0.6-3.8,1.8-5.3c1.2-1.3,2.9-2.1,4.6-2h0.1c2.3,0,4.5,1.1,5.9,2.9l0.1,0.1l1.5-1.6l-0.1-0.1c-0.9-1.1-2-1.9-3.3-2.5
			c-1.3-0.6-2.7-0.9-4.1-0.9h-0.2c-2.4-0.1-4.7,0.9-6.4,2.6C-37.2-2-38,0.3-38,3.2v0.3c0,2.9,0.8,5.2,2.5,6.9
			c1.7,1.7,3.9,2.6,6.6,2.6c2.9,0,5.6-1.3,7.3-3.5l0.1-0.1L-23.2,7.8L-23.2,7.8z"/>
		<path id="Path_2" class="st0" d="M-13.1-2.4L-13.1-2.4c-1.8,0-3.5,0.9-4.5,2.4v-2.1H-20v14.7h2.4V5.5c-0.1-1.5,0.4-3,1.2-4.2
			c0.9-1,2.1-1.6,3.5-1.5h0.4v-2.1l-0.1,0C-12.8-2.4-12.9-2.4-13.1-2.4z"/>
		<path id="Path_3" class="st0" d="M-5.2-2.4h-0.2c-2-0.1-3.8,0.7-5.2,2.1c-1.3,1.5-2,3.4-2,5.4v0.2c-0.1,2,0.6,3.9,2,5.4
			c1.3,1.4,3.2,2.2,5.2,2.1h0.2c2,0.1,3.8-0.7,5.2-2.1C1.3,9.3,2,7.4,2,5.4V5.2C2,3.2,1.3,1.2,0-0.3C-1.3-1.7-3.2-2.5-5.2-2.4z
			 M-5.2,10.8h-0.2c-1.3,0-2.6-0.5-3.4-1.5c-0.9-1.1-1.4-2.6-1.3-4V5.2c-0.1-1.5,0.4-2.9,1.3-4c0.9-1,2.1-1.5,3.4-1.5h0.2
			c1.3,0,2.6,0.5,3.4,1.5c0.9,1.1,1.4,2.6,1.3,4v0.1c0.1,1.5-0.4,2.9-1.3,4C-2.6,10.3-3.8,10.9-5.2,10.8L-5.2,10.8z"/>
		<path id="Path_4" class="st0" d="M14.7-1c-0.9-1-2.3-1.4-4-1.4h-0.1C8.8-2.5,7.1-1.6,6-0.2v-1.9H3.6v14.7H6V5.2
			c-0.1-1.4,0.4-2.8,1.2-4c0.8-1,2-1.5,3.2-1.5h0.1c2.2,0,3.3,1.1,3.3,3.4v9.5h2.4V3.1C16.1,1.3,15.6,0,14.7-1z"/>
	</g>
	<g id="Group_2" transform="translate(1478.178 1021.341)">
		<path id="Path_5" class="st1" d="M-77.1-9.6L-77.1-9.6c-1.2,0-2.4,0.2-3.4,0.7c-1,0.4-1.9,1-2.7,1.8l-0.1,0.1l1.5,1.5l0.1-0.1
			c0.6-0.6,1.2-1,2-1.3c0.8-0.4,1.6-0.5,2.4-0.5h0.1c1-0.1,1.9,0.2,2.7,0.9c0.6,0.6,0.8,1.5,0.8,2.3v0.6c-3.5,0-6,0.4-7.6,1.2
			c-1.7,0.8-2.5,2-2.5,3.8c0,1.3,0.5,2.5,1.4,3.3c1,0.9,2.3,1.3,3.6,1.3h0.1c1.1,0,2.1-0.3,3.1-0.8c0.8-0.4,1.5-1,2-1.8v2.2h2.4V-4
			C-71.4-7.7-73.4-9.6-77.1-9.6z M-79.7-1c1.3-0.5,3.2-0.7,5.9-0.8c0,1.4-0.5,2.7-1.4,3.8c-0.9,1-2.2,1.6-3.6,1.5h0
			c-1.7,0-2.8-0.9-2.8-2.3C-81.5,0.3-80.9-0.5-79.7-1L-79.7-1z"/>
		<path id="Path_6" class="st1" d="M-61.8-9.6H-62c-1,0-2.1,0.2-3,0.7c-0.8,0.4-1.5,0.9-2,1.6v-2h-2.4v20.8h2.4v-8
			c0.5,0.7,1.2,1.3,2,1.6c0.9,0.5,2,0.7,3,0.7h0.2c1.9,0.1,3.7-0.7,4.9-2.1c1.3-1.5,1.9-3.5,1.9-5.4V-2c0.1-2-0.6-3.9-1.9-5.4
			C-58.2-8.9-60-9.7-61.8-9.6z M-57.4-2v0.1c0.1,1.5-0.4,2.9-1.3,4c-0.9,1-2.1,1.5-3.4,1.5h-0.2c-1.3,0-2.5-0.5-3.4-1.5
			c-0.9-1.1-1.4-2.6-1.3-4V-2c-0.1-1.5,0.4-2.9,1.3-4c0.9-1,2.1-1.5,3.4-1.5h0.2c1.3,0,2.6,0.5,3.4,1.5C-57.8-4.9-57.4-3.4-57.4-2
			L-57.4-2z"/>
		<path id="Path_7" class="st1" d="M-40.8-7.5c-1.2-1.4-3-2.2-4.9-2.1h-0.2c-1,0-2.1,0.2-3,0.7c-0.8,0.4-1.5,0.9-2,1.6v-2h-2.4v20.8
			h2.4v-8c0.5,0.7,1.2,1.3,2,1.6c0.9,0.5,2,0.7,3,0.7h0.2c1.9,0.1,3.7-0.7,4.9-2.1c1.3-1.5,1.9-3.5,1.9-5.4V-2
			C-38.8-4-39.5-6-40.8-7.5z M-41.3-2v0.1c0.1,1.5-0.4,2.9-1.3,4c-0.9,1-2.1,1.5-3.4,1.5h-0.2c-1.3,0-2.5-0.5-3.4-1.5
			c-0.9-1.1-1.4-2.6-1.3-4V-2c-0.1-1.5,0.4-2.9,1.3-4c0.9-1,2.1-1.5,3.4-1.5h0.2c1.3,0,2.6,0.5,3.4,1.5C-41.7-4.9-41.2-3.4-41.3-2
			L-41.3-2z"/>
	</g>
	<g id="Group_3" transform="translate(1309.449 1029.238)">
		<path id="Path_8" class="st1" d="M-7.7-8.2v5.6c0,0.1,0.1,0.2,0.2,0.3l2.9,1.6l2,1.2c0.2,0.1,0.4,0,0.4-0.1c0,0,0-0.1,0-0.2v-5.6
			c0-0.1-0.1-0.2-0.2-0.3l-4.9-2.8c-0.2-0.1-0.4,0-0.4,0.1C-7.7-8.3-7.7-8.2-7.7-8.2z"/>
		<path id="Path_9" class="st1" d="M1.5-11.5l-2.9-1.6c-0.1-0.1-0.2-0.1-0.3,0l-2.8,1.6l-2.4,1.3C-7-10.2-7-10-6.9-9.8
			c0,0,0.1,0.1,0.1,0.1l5.1,3c0.1,0.1,0.2,0.1,0.3,0l2.9-1.7l2.3-1.3C3.9-9.7,4-9.9,3.9-10c0,0-0.1-0.1-0.1-0.1L1.5-11.5z"/>
		<path id="Path_10" class="st1" d="M4.7-8.3c0-0.2-0.1-0.3-0.3-0.3c-0.1,0-0.1,0-0.2,0L2.1-7.3l-2.9,1.7C-0.9-5.6-1-5.5-1-5.4v5.7
			c0,0.2,0.1,0.3,0.3,0.3c0.1,0,0.1,0,0.2,0l2.2-1.3l2.8-1.6c0.1-0.1,0.2-0.2,0.2-0.3L4.7-8.3z"/>
	</g>
	<path id="Path_11" class="st0" d="M1330.1,1012.6c-0.3-0.2-0.5-0.4-0.5-0.7c-0.6-4.6-4.5-8.1-9.1-8.2c-1.4,0-2.8,0.3-4.1,0.9
		c-0.5,0.2-1,0-1.3-0.4c-2-3.4-5.7-5.5-9.7-5.4c-6.1,0-11.2,4.6-11.1,10.7v1.1c-0.1,0.4-0.3,0.7-0.6,0.9c-2.8,1.3-4.3,4.5-4.3,7.7
		c0,4.3,3.5,7.7,7.7,7.8c0.1,0,0.1,0,0.2,0h1.2v-1.9h-1.2c-3.2,0-5.9-2.5-6-5.8c0,0,0-0.1,0-0.1c0-2.9,1.6-5.7,4.1-6.3
		c0.4-0.1,0.8-0.5,0.8-0.9v-2.4c0-5,4.2-8.8,9.3-8.8c4.2,0,7.7,2.4,8.8,6.1c0.2,0.5,0.7,0.8,1.2,0.6c0.1,0,0.3-0.1,0.4-0.2
		c1.3-1.1,3-1.8,4.7-1.7c4,0.1,7.2,3.3,7.3,7.3c0,0.4,0.3,0.8,0.6,0.9c2.3,0.8,3.8,2.9,3.8,5.4c0,3.3-2.4,5.9-5.7,5.9h-9.2v1.9h9.2
		c4.4,0.1,7.6-3.5,7.6-7.8C1334.1,1016.4,1332.6,1013.9,1330.1,1012.6z"/>
</g>
</svg>
